# xmcd
#
# Track frame offsets: 
#        150
#        14775
#        31840
#        45405
#        59277
#        75552
#        91072
#        105590
#        117697
#        131365
#        144940
#        156767
#        170872
#        185917
#        199957
#
# Disc length: 2848 seconds
#
# Revision: 0
# Processed by: cddbd v1.5.2PL0 Copyright (c) Steve Scherf et al.
# Submitted via: ExactAudioCopy v0.95b4
#
DISCID=cd0b1e0f
DTITLE=Various Artist - Detroit Blues Rarities Volume 2: Blues Harp-Suckers!
DYEAR=1983
DGENRE=Blues
TTITLE0=Walter Mitchell - Stop Messing Around
TTITLE1=Walter Mitchell - Pet Milk Blues
TTITLE2=Walter Mitchell - Broke and Hungry
TTITLE3=Robert Richard - Baby Please Don't Go
TTITLE4=Robert Richard - Cadillac Woman
TTITLE5=Robert Richard - Wig Wearin' Woman
TTITLE6=Robert Richard - Root Hog
TTITLE7=Elder R. Wilson - Gonna Wait Til A Change Come
TTITLE8=Elder R. Wilson - This Train
TTITLE9=Elder R. Wilson - Got Just What I Wanted
TTITLE10=Elder R. Wilson - Trouble Everywhere
TTITLE11=Elder R. Wilson - Lily of the Valley
TTITLE12=Elder R. Wilson - Better Get Ready
TTITLE13=Joe Von Battle - Lookin' For My Woman
TTITLE14=Little Sonny - I Hear My Woman Callin' [Bonus Track]
EXTD=
EXTT0=
EXTT1=
EXTT2=
EXTT3=
EXTT4=
EXTT5=
EXTT6=
EXTT7=
EXTT8=
EXTT9=
EXTT10=
EXTT11=
EXTT12=
EXTT13=
EXTT14=
PLAYORDER=
